<?xml version="1.0" encoding="UTF-8" standalone="no"?>
<!-- Created with Inkscape (http://www.inkscape.org/) -->

<svg
   width="210mm"
   height="297mm"
   viewBox="0 0 210 297"
   version="1.1"
   id="svg5"
   inkscape:version="1.2.2 (732a01da63, 2022-12-09)"
   sodipodi:docname="main.svg"
   xml:space="preserve"
   xmlns:inkscape="http://www.inkscape.org/namespaces/inkscape"
   xmlns:sodipodi="http://sodipodi.sourceforge.net/DTD/sodipodi-0.dtd"
   xmlns="http://www.w3.org/2000/svg"
   xmlns:svg="http://www.w3.org/2000/svg"><sodipodi:namedview
     id="namedview7"
     pagecolor="#ffffff"
     bordercolor="#000000"
     borderopacity="0.25"
     inkscape:showpageshadow="false"
     inkscape:pageopacity="0.0"
     inkscape:pagecheckerboard="false"
     inkscape:deskcolor="#ffffff"
     inkscape:document-units="mm"
     showgrid="true"
     showborder="true"
     borderlayer="false"
     shape-rendering="auto"
     inkscape:zoom="1"
     inkscape:cx="213"
     inkscape:cy="212"
     inkscape:window-width="1920"
     inkscape:window-height="1017"
     inkscape:window-x="-8"
     inkscape:window-y="-8"
     inkscape:window-maximized="1"
     inkscape:current-layer="layer1"><inkscape:grid
       type="xygrid"
       id="grid1516"
       color="#0099e5"
       opacity="0.0627451"
       empcolor="#0099e5"
       empopacity="0.09019608"
       enabled="true" /></sodipodi:namedview><defs
     id="defs2"><inkscape:path-effect
       effect="perspective-envelope"
       up_left_point="26.458333,170.65624"
       up_right_point="31.749999,170.65624"
       down_left_point="26.458333,175.94791"
       down_right_point="31.749999,175.94791"
       id="path-effect26999"
       is_visible="true"
       lpeversion="1"
       deform_type="perspective"
       horizontal_mirror="false"
       vertical_mirror="false"
       overflow_perspective="false" /><filter
       inkscape:collect="always"
       style="color-interpolation-filters:sRGB"
       id="filter40650"
       x="-0.024071701"
       y="-0.08425096"
       width="1.0481434"
       height="1.1685019"><feGaussianBlur
         inkscape:collect="always"
         stdDeviation="0.37152333"
         id="feGaussianBlur40652" /></filter></defs><g
     inkscape:label="Layer 1"
     inkscape:groupmode="layer"
     id="layer1"><circle
       style="fill:none;stroke:#333333;stroke-width:7.4;stroke-linecap:round;stroke-opacity:1;stroke-dasharray:14.8,8.88000094;stroke-dashoffset:0;stroke-linejoin:bevel;paint-order:stroke fill markers"
       id="path4478-2"
       cx="30.454161"
       cy="30.454161"
       r="26.458332" /><circle
       style="fill:none;stroke:#000000;stroke-width:3.5;stroke-linecap:round;stroke-opacity:1;stroke-dasharray:none"
       id="path4478"
       cx="30.454161"
       cy="30.454161"
       r="26.458332" /><circle
       style="fill:#0d7eff;stroke:#000000;stroke-width:3.5;stroke-linecap:round;stroke-dasharray:none;stroke-opacity:1;fill-opacity:1"
       id="circle7160"
       cx="30.454161"
       cy="30.454161"
       r="11.879172" /><circle
       style="fill:#0d7eff;stroke:#000000;stroke-width:3.1;stroke-linecap:round;stroke-dasharray:18.59999861,18.59999861;stroke-opacity:1;fill-opacity:1;stroke-dashoffset:0"
       id="circle7162"
       cx="30.454161"
       cy="30.454161"
       r="11.879172" /><circle
       style="fill:none;fill-opacity:1;stroke:#333333;stroke-width:2.777;stroke-linecap:round;stroke-dasharray:16.6619997;stroke-dashoffset:0;stroke-opacity:1"
       id="circle7894"
       cx="30.814121"
       cy="-30.091908"
       r="15.238551"
       transform="rotate(89.320334)" /><circle
       style="fill:#0d7eff;stroke:#000000;stroke-width:2;stroke-linecap:round;stroke-dasharray:none;stroke-opacity:1;fill-opacity:0.25999999"
       id="circle10180"
       cx="98.791664"
       cy="30.454161"
       r="26.458332"
       inkscape:export-filename="emmit.png"
       inkscape:export-xdpi="96"
       inkscape:export-ydpi="96" /><circle
       style="fill:none;fill-opacity:0.26;stroke:#000000;stroke-width:3.49036;stroke-linecap:round;stroke-dasharray:20.9422, 20.9422;stroke-dashoffset:0;stroke-opacity:1"
       id="circle10182"
       cx="102.2118"
       cy="-15.491518"
       r="27.161505"
       transform="rotate(25.751113)" /><circle
       style="fill:none;stroke:#333333;stroke-width:7.4;stroke-linecap:round;stroke-linejoin:bevel;stroke-dasharray:14.8, 8.88;stroke-dashoffset:0;stroke-opacity:1;paint-order:stroke fill markers"
       id="circle18091"
       cx="30.454161"
       cy="96.545837"
       r="26.458332"
       inkscape:export-filename="node.png"
       inkscape:export-xdpi="96"
       inkscape:export-ydpi="96" /><circle
       style="fill:none;stroke:#000000;stroke-width:3.5;stroke-linecap:round;stroke-dasharray:none;stroke-opacity:1"
       id="circle18093"
       cx="30.454161"
       cy="96.545837"
       r="26.458332" /><circle
       style="fill:none;stroke:#0d7eff;stroke-width:7.4;stroke-linecap:round;stroke-linejoin:bevel;stroke-dasharray:14.8, 8.88;stroke-dashoffset:0;stroke-opacity:1;paint-order:stroke fill markers"
       id="circle21019"
       cx="100.54166"
       cy="96.545837"
       r="26.458332"
       inkscape:export-filename="node-device-connected.png"
       inkscape:export-xdpi="96"
       inkscape:export-ydpi="96" /><circle
       style="fill:none;stroke:#000000;stroke-width:3.5;stroke-linecap:round;stroke-dasharray:none;stroke-opacity:1"
       id="circle21021"
       cx="100.54166"
       cy="96.545837"
       r="26.458332" /><path
       id="path24635"
       style="stroke-width:0.0571028"
       d="m 29.104167,134.69875 c -2.512517,0 -4.568191,0.79944 -6.167066,2.39831 -1.598874,1.59888 -2.398303,3.65457 -2.398303,6.16706 0,2.51254 0.799429,4.5682 2.398303,6.16707 1.598875,1.59888 3.654549,2.3983 6.167066,2.3983 2.512517,0 4.568191,-0.79942 6.167065,-2.3983 1.598874,-1.59887 2.398303,-3.65453 2.398303,-6.16707 0,-2.51249 -0.799429,-4.56818 -2.398303,-6.16706 -1.598874,-1.59887 -3.654548,-2.39831 -6.167065,-2.39831 z m 0,3.42615 c 1.484671,0 2.712237,0.48551 3.682979,1.45624 0.970746,0.97076 1.456242,2.19834 1.456242,3.68298 0,1.48468 -0.485496,2.71224 -1.456242,3.68298 -0.970742,0.97077 -2.198308,1.45624 -3.682979,1.45624 -1.484668,0 -2.712235,-0.48547 -3.68298,-1.45624 -0.970746,-0.97074 -1.456242,-2.1983 -1.456242,-3.68298 0,-1.48464 0.485496,-2.71222 1.456242,-3.68298 0.970745,-0.97073 2.198312,-1.45624 3.68298,-1.45624 z m 0,17.1881 c -2.360242,0 -4.711073,0.28525 -7.052283,0.85628 -2.34121,0.571 -4.786951,1.4278 -7.337537,2.56987 -1.142053,0.53296 -2.074978,1.31311 -2.798278,2.34094 -0.07241,0.1029 -0.139996,0.20865 -0.205156,0.31574 h 5.268929 c 2.059687,-0.95051 3.988016,-1.61754 5.785693,-2.00039 2.055696,-0.43777 4.168733,-0.65629 6.338632,-0.65629 2.169902,0 4.263653,0.21848 6.28127,0.65629 0.185828,0.0403 0.373435,0.0838 0.562821,0.13042 1.608789,0.39609 3.34591,1.01956 5.210987,1.86997 h 5.338692 c -0.06343,-0.10396 -0.129162,-0.20653 -0.199471,-0.30644 -0.719076,-1.02175 -1.674395,-1.80162 -2.865975,-2.33939 -2.547577,-1.11137 -4.982289,-1.96224 -7.304464,-2.5523 -2.322177,-0.59005 -4.663618,-0.8847 -7.02386,-0.8847 z"
       sodipodi:nodetypes="sssssssssssssssssssscsccssssccccss"
       inkscape:export-filename="computer.png"
       inkscape:export-xdpi="96"
       inkscape:export-ydpi="96" /><path
       id="rect25829"
       style="fill:none;stroke:#000000;stroke-width:2.5;stroke-linecap:round;stroke-linejoin:bevel;paint-order:stroke fill markers"
       d="M 9.6132576,161.39583 H 48.595076 c 0.195474,0 0.36104,0.15754 0.352841,0.35284 l -0.970076,23.10682 c -0.0082,0.1953 -0.157367,0.35284 -0.352841,0.35284 H 10.583333 c -0.195473,0 -0.344641,-0.15754 -0.35284,-0.35284 L 9.260417,161.74867 c -0.0082,-0.1953 0.1573669,-0.35284 0.3528406,-0.35284 z"
       sodipodi:nodetypes="sssssssss" /><path
       id="path25906"
       style="fill:none;stroke:#000000;stroke-linecap:round;stroke-linejoin:bevel;paint-order:stroke fill markers;stroke-width:0.5;stroke-dasharray:none"
       d="m 31.749999,173.30208 a 2.6458333,2.6458333 0 0 1 -2.645833,2.64583 2.6458333,2.6458333 0 0 1 -2.645833,-2.64583 2.6458333,2.6458333 0 0 1 2.645833,-2.64584 2.6458333,2.6458333 0 0 1 2.645833,2.64584 z" /><path
       id="path28816"
       style="fill:none;stroke:#000000;stroke-width:1.1;stroke-linecap:round;stroke-linejoin:bevel;stroke-dasharray:1.1, 2.2;stroke-dashoffset:0;paint-order:stroke fill markers"
       d="m 31.75,173.30209 a 2.6458333,2.6458333 0 0 1 -2.645833,2.64583 2.6458333,2.6458333 0 0 1 -2.645833,-2.64583 2.6458333,2.6458333 0 0 1 2.645833,-2.64584 2.6458333,2.6458333 0 0 1 2.645833,2.64584 z" /><rect
       style="fill:none;fill-opacity:1;stroke:#000000;stroke-width:1.7;stroke-linecap:round;stroke-linejoin:bevel;stroke-dasharray:none;stroke-dashoffset:0;stroke-opacity:1;paint-order:stroke fill markers"
       id="rect30270"
       width="42.333336"
       height="10.583339"
       x="79.125"
       y="148.41667"
       ry="0.35284057"
       inkscape:export-filename="server.png"
       inkscape:export-xdpi="96"
       inkscape:export-ydpi="96" /><rect
       style="fill:none;fill-opacity:1;stroke:#000000;stroke-width:1.7;stroke-linecap:round;stroke-linejoin:bevel;stroke-dasharray:none;stroke-dashoffset:0;stroke-opacity:1;paint-order:stroke fill markers"
       id="rect30272"
       width="42.333336"
       height="10.583339"
       x="79.125"
       y="161.64583"
       ry="0.35284057" /><rect
       style="fill:none;fill-opacity:1;stroke:#000000;stroke-width:1.7;stroke-linecap:round;stroke-linejoin:bevel;stroke-dasharray:none;stroke-dashoffset:0;stroke-opacity:1;paint-order:stroke fill markers"
       id="rect30274"
       width="42.333336"
       height="10.583339"
       x="79.125"
       y="174.875"
       ry="0.35284057" /><path
       id="path30276"
       style="fill:none;stroke:#000000;stroke-width:0.5;stroke-linecap:round;stroke-linejoin:bevel;stroke-dasharray:none;paint-order:stroke fill markers"
       d="m 87.0625,153.70834 a 2.6458333,2.6458333 0 0 1 -2.645833,2.64583 2.6458333,2.6458333 0 0 1 -2.645833,-2.64583 2.6458333,2.6458333 0 0 1 2.645833,-2.64584 2.6458333,2.6458333 0 0 1 2.645833,2.64584 z" /><path
       id="path30278"
       style="fill:none;stroke:#000000;stroke-width:1.1;stroke-linecap:round;stroke-linejoin:bevel;stroke-dasharray:1.1, 2.2;stroke-dashoffset:0;paint-order:stroke fill markers"
       d="m 87.062501,153.70835 a 2.6458333,2.6458333 0 0 1 -2.645833,2.64583 2.6458333,2.6458333 0 0 1 -2.645833,-2.64583 2.6458333,2.6458333 0 0 1 2.645833,-2.64584 2.6458333,2.6458333 0 0 1 2.645833,2.64584 z" /><path
       id="path30280"
       style="fill:none;stroke:#000000;stroke-width:0.5;stroke-linecap:round;stroke-linejoin:bevel;stroke-dasharray:none;paint-order:stroke fill markers"
       d="m 86.812501,166.68752 a 2.6458333,2.6458333 0 0 1 -2.645833,2.64583 2.6458333,2.6458333 0 0 1 -2.645833,-2.64583 2.6458333,2.6458333 0 0 1 2.645833,-2.64584 2.6458333,2.6458333 0 0 1 2.645833,2.64584 z" /><path
       id="path30282"
       style="fill:none;stroke:#000000;stroke-width:1.1;stroke-linecap:round;stroke-linejoin:bevel;stroke-dasharray:1.1, 2.2;stroke-dashoffset:0;paint-order:stroke fill markers"
       d="m 86.812502,166.68753 a 2.6458333,2.6458333 0 0 1 -2.645833,2.64583 2.6458333,2.6458333 0 0 1 -2.645833,-2.64583 2.6458333,2.6458333 0 0 1 2.645833,-2.64584 2.6458333,2.6458333 0 0 1 2.645833,2.64584 z" /><path
       id="path30284"
       style="fill:none;stroke:#000000;stroke-width:0.5;stroke-linecap:round;stroke-linejoin:bevel;stroke-dasharray:none;paint-order:stroke fill markers"
       d="m 86.812501,179.91669 a 2.6458333,2.6458333 0 0 1 -2.645833,2.64583 2.6458333,2.6458333 0 0 1 -2.645833,-2.64583 2.6458333,2.6458333 0 0 1 2.645833,-2.64584 2.6458333,2.6458333 0 0 1 2.645833,2.64584 z" /><path
       id="path30286"
       style="fill:none;stroke:#000000;stroke-width:1.1;stroke-linecap:round;stroke-linejoin:bevel;stroke-dasharray:1.1, 2.2;stroke-dashoffset:0;paint-order:stroke fill markers"
       d="m 86.812502,179.9167 a 2.6458333,2.6458333 0 0 1 -2.645833,2.64583 2.6458333,2.6458333 0 0 1 -2.645833,-2.64583 2.6458333,2.6458333 0 0 1 2.645833,-2.64584 2.6458333,2.6458333 0 0 1 2.645833,2.64584 z" /><circle
       style="fill:#000000;fill-opacity:1;stroke:none;stroke-width:1.7;stroke-linecap:round;stroke-linejoin:bevel;stroke-dasharray:none;stroke-dashoffset:0;stroke-opacity:1;paint-order:stroke fill markers"
       id="path30288"
       cx="113.65313"
       cy="153.70834"
       r="0.66145831" /><circle
       style="fill:#000000;fill-opacity:1;stroke:none;stroke-width:1.7;stroke-linecap:round;stroke-linejoin:bevel;stroke-dasharray:none;stroke-dashoffset:0;stroke-opacity:1;paint-order:stroke fill markers"
       id="circle30290"
       cx="115.24062"
       cy="153.70834"
       r="0.66145831" /><circle
       style="fill:#000000;fill-opacity:1;stroke:none;stroke-width:1.7;stroke-linecap:round;stroke-linejoin:bevel;stroke-dasharray:none;stroke-dashoffset:0;stroke-opacity:1;paint-order:stroke fill markers"
       id="circle30292"
       cx="116.82812"
       cy="153.70834"
       r="0.66145831" /><circle
       style="fill:#000000;fill-opacity:1;stroke:none;stroke-width:1.7;stroke-linecap:round;stroke-linejoin:bevel;stroke-dasharray:none;stroke-dashoffset:0;stroke-opacity:1;paint-order:stroke fill markers"
       id="circle30294"
       cx="113.65311"
       cy="166.93752"
       r="0.66145831" /><circle
       style="fill:#000000;fill-opacity:1;stroke:none;stroke-width:1.7;stroke-linecap:round;stroke-linejoin:bevel;stroke-dasharray:none;stroke-dashoffset:0;stroke-opacity:1;paint-order:stroke fill markers"
       id="circle30296"
       cx="115.24059"
       cy="166.93752"
       r="0.66145831" /><circle
       style="fill:#000000;fill-opacity:1;stroke:none;stroke-width:1.7;stroke-linecap:round;stroke-linejoin:bevel;stroke-dasharray:none;stroke-dashoffset:0;stroke-opacity:1;paint-order:stroke fill markers"
       id="circle30298"
       cx="116.82812"
       cy="166.93752"
       r="0.66145831" /><circle
       style="fill:#000000;fill-opacity:1;stroke:none;stroke-width:1.7;stroke-linecap:round;stroke-linejoin:bevel;stroke-dasharray:none;stroke-dashoffset:0;stroke-opacity:1;paint-order:stroke fill markers"
       id="circle30300"
       cx="113.6531"
       cy="180.16667"
       r="0.66145831" /><circle
       style="fill:#000000;fill-opacity:1;stroke:none;stroke-width:1.7;stroke-linecap:round;stroke-linejoin:bevel;stroke-dasharray:none;stroke-dashoffset:0;stroke-opacity:1;paint-order:stroke fill markers"
       id="circle30302"
       cx="115.24059"
       cy="180.16667"
       r="0.66145831" /><circle
       style="fill:#000000;fill-opacity:1;stroke:none;stroke-width:1.7;stroke-linecap:round;stroke-linejoin:bevel;stroke-dasharray:none;stroke-dashoffset:0;stroke-opacity:1;paint-order:stroke fill markers"
       id="circle30304"
       cx="116.82812"
       cy="180.16667"
       r="0.66145831" /><rect
       style="fill:#353535;fill-opacity:1;stroke:none;stroke-width:1.7;stroke-linecap:round;stroke-linejoin:bevel;stroke-dasharray:none;stroke-dashoffset:0;stroke-opacity:1;paint-order:stroke fill markers;filter:url(#filter40650)"
       id="rect40640"
       width="37.041668"
       height="10.583333"
       x="10.583333"
       y="195.79167"
       ry="5.2916665" /><rect
       style="fill:#9e9e9e;fill-opacity:1;stroke:none;stroke-width:1.7;stroke-linecap:round;stroke-linejoin:bevel;stroke-dasharray:none;stroke-dashoffset:0;stroke-opacity:1;paint-order:stroke fill markers"
       id="rect38292"
       width="37.041668"
       height="10.583333"
       x="10.583333"
       y="195.79167"
       ry="5.2916665" /></g></svg>
